<svg width="1400" height="550" viewBox="0 0 1400 550" fill="none" xmlns="http://www.w3.org/2000/svg">
<g clip-path="url(#clip0_92_380)">
<path d="M50.5202 134H64.0353V66.044H50.5202V134ZM69.3473 109.444C69.3473 125.053 79.3409 135.332 94.7595 135.332C110.273 135.332 120.267 125.053 120.267 109.444C120.267 93.7403 110.273 83.4613 94.7595 83.4613C79.3409 83.4613 69.3473 93.7403 69.3473 109.444ZM82.8624 109.444C82.8624 101.545 85.6225 93.6452 94.7595 93.6452C103.992 93.6452 106.752 101.545 106.752 109.444C106.752 117.249 103.992 125.149 94.7595 125.149C85.6225 125.149 82.8624 117.249 82.8624 109.444ZM169.124 84.7937H155.704L145.329 118.391H145.139L134.765 84.7937H120.584L137.43 134H152.468L169.124 84.7937ZM217.524 112.68C218.476 97.5474 210.386 83.4613 193.634 83.4613C178.692 83.4613 168.508 94.6921 168.508 109.444C168.508 124.673 178.121 135.332 193.634 135.332C204.77 135.332 212.86 130.383 216.667 118.772H204.77C203.914 121.817 199.535 125.149 194.11 125.149C186.591 125.149 182.404 121.246 182.023 112.68H217.524ZM182.023 104.115C182.213 100.308 184.688 93.6452 193.254 93.6452C199.821 93.6452 202.771 97.2619 204.009 104.115H182.023ZM289.243 84.7937H275.252L264.497 118.486H264.307L253.171 84.7937H238.704L256.026 130.954C257.549 134.857 256.026 139.711 251.363 140.186C248.698 140.282 246.033 139.901 243.463 139.711V150.846C246.223 151.132 248.983 151.322 251.743 151.322C261.071 151.322 265.734 148.086 268.685 140.186L289.243 84.7937ZM288.439 109.444C288.439 125.053 298.433 135.332 313.851 135.332C329.365 135.332 339.359 125.053 339.359 109.444C339.359 93.7403 329.365 83.4613 313.851 83.4613C298.433 83.4613 288.439 93.7403 288.439 109.444ZM301.954 109.444C301.954 101.545 304.714 93.6452 313.851 93.6452C323.083 93.6452 325.844 101.545 325.844 109.444C325.844 117.249 323.083 125.149 313.851 125.149C304.714 125.149 301.954 117.249 301.954 109.444ZM390.5 84.7937H376.985V110.587C376.985 120.58 373.844 124.673 366.515 124.673C360.234 124.673 357.854 120.675 357.854 112.585V84.7937H344.339V115.06C344.339 127.242 347.956 135.332 362.327 135.332C368.038 135.332 373.939 132.668 377.365 127.147H377.651V134H390.5V84.7937ZM396.95 134H410.465V111.824C410.465 103.163 413.891 96.0246 423.79 96.0246C425.408 96.0246 427.407 96.2149 428.644 96.5005V83.9372C427.787 83.6516 426.645 83.4613 425.693 83.4613C419.126 83.4613 412.464 87.7442 409.989 93.9307H409.799V84.7937H396.95V134ZM50.5202 222H64.0353V154.044H50.5202V222ZM71.2509 222H84.7659V172.794H71.2509V222ZM84.7659 154.044H71.2509V165.18H84.7659V154.044ZM135.477 172.794H122.057L111.683 206.391H111.493L101.118 172.794H86.9371L103.783 222H118.821L135.477 172.794ZM137.622 222H151.137V172.794H137.622V222ZM151.137 154.044H137.622V165.18H151.137V154.044ZM157.972 222H171.487V196.207C171.487 186.214 174.627 182.121 181.956 182.121C188.238 182.121 190.617 186.118 190.617 194.208V222H204.132V191.734C204.132 179.551 200.515 171.461 186.144 171.461C180.433 171.461 174.532 174.126 171.106 179.646H170.82V172.794H157.972V222ZM257.885 172.794H245.036V179.361H244.846C241.61 173.65 236.661 171.461 230.189 171.461C216.388 171.461 209.06 183.073 209.06 195.826C209.06 209.342 215.341 220.572 230.094 220.572C235.995 220.572 241.896 218.098 244.846 212.958H245.036V219.43C245.132 226.473 241.705 231.613 234.186 231.613C229.428 231.613 225.335 229.9 224.098 224.855H210.678C211.344 236.086 222.67 240.655 232.378 240.655C255.03 240.655 257.885 226.949 257.885 218.859V172.794ZM233.52 210.388C225.24 210.388 222.575 202.679 222.575 195.636C222.575 188.308 225.906 181.645 233.52 181.645C242.276 181.645 245.036 188.783 245.036 196.778C245.036 203.821 241.229 210.388 233.52 210.388ZM287.642 222H301.157V199.824C301.157 191.163 304.584 184.025 314.482 184.025C316.1 184.025 318.099 184.215 319.336 184.5V171.937C318.479 171.652 317.337 171.461 316.385 171.461C309.818 171.461 303.156 175.744 300.681 181.931H300.491V172.794H287.642V222ZM317.632 197.444C317.632 213.053 327.625 223.332 343.044 223.332C358.558 223.332 368.551 213.053 368.551 197.444C368.551 181.74 358.558 171.461 343.044 171.461C327.625 171.461 317.632 181.74 317.632 197.444ZM331.147 197.444C331.147 189.545 333.907 181.645 343.044 181.645C352.276 181.645 355.036 189.545 355.036 197.444C355.036 205.249 352.276 213.149 343.044 213.149C333.907 213.149 331.147 205.249 331.147 197.444ZM372.009 197.444C372.009 213.053 382.002 223.332 397.421 223.332C412.935 223.332 422.928 213.053 422.928 197.444C422.928 181.74 412.935 171.461 397.421 171.461C382.002 171.461 372.009 181.74 372.009 197.444ZM385.524 197.444C385.524 189.545 388.284 181.645 397.421 181.645C406.653 181.645 409.413 189.545 409.413 197.444C409.413 205.249 406.653 213.149 397.421 213.149C388.284 213.149 385.524 205.249 385.524 197.444ZM428.289 222H441.804V193.447C441.804 183.834 448.276 182.121 450.941 182.121C459.507 182.121 459.126 188.688 459.126 194.399V222H472.641V194.589C472.641 188.403 474.069 182.121 481.683 182.121C489.393 182.121 489.964 187.546 489.964 194.113V222H503.479V189.069C503.479 176.315 495.96 171.461 485.49 171.461C478.638 171.461 473.498 175.364 470.643 179.646C467.978 173.746 462.458 171.461 456.271 171.461C449.894 171.461 444.755 174.412 441.233 179.456H441.043V172.794H428.289V222Z" fill="#252525"/>
<rect x="45" y="248" width="417" height="41" fill="white"/>
<rect x="45" y="296" width="353" height="39" fill="white"/>
<path d="M56.8809 254.496H51.4917V260.378H48.2277V263.984H51.4917V275.56C51.4917 279.469 54.3761 280.228 57.678 280.228C58.7406 280.228 59.9172 280.19 60.828 280.038V275.825C60.2587 275.939 59.7274 275.977 59.1581 275.977C57.3364 275.977 56.8809 275.522 56.8809 273.7V263.984H60.828V260.378H56.8809V254.496ZM63.3922 280H68.7815V269.715C68.7815 265.73 70.0339 264.098 72.9563 264.098C75.4612 264.098 76.41 265.692 76.41 268.918V280H81.7993V267.931C81.7993 263.073 80.3571 259.847 74.6262 259.847C72.6147 259.847 70.2617 260.91 68.8954 263.111H68.7815V252.902H63.3922V280ZM104.486 271.499C104.866 265.464 101.64 259.847 94.9603 259.847C89.0017 259.847 84.9408 264.326 84.9408 270.208C84.9408 276.281 88.774 280.531 94.9603 280.531C99.4008 280.531 102.627 278.558 104.145 273.928H99.4008C99.0592 275.142 97.3134 276.47 95.1501 276.47C92.1518 276.47 90.4819 274.914 90.3301 271.499H104.486ZM90.3301 268.083C90.406 266.565 91.3928 263.908 94.8085 263.908C97.4272 263.908 98.6038 265.35 99.0972 268.083H90.3301ZM118.246 286.907H123.635V277.571H123.711C125.001 279.507 127.241 280.531 129.594 280.531C135.325 280.531 138.209 275.635 138.209 270.398C138.209 264.819 135.438 259.847 129.29 259.847C126.861 259.847 124.736 260.796 123.445 262.883H123.369V260.378H118.246V286.907ZM128.151 276.47C124.66 276.47 123.445 273.434 123.445 270.246C123.445 267.058 124.584 263.908 128.114 263.908C131.567 263.908 132.82 267.134 132.82 270.246C132.82 273.434 131.681 276.47 128.151 276.47ZM160.044 271.499C160.424 265.464 157.198 259.847 150.518 259.847C144.56 259.847 140.499 264.326 140.499 270.208C140.499 276.281 144.332 280.531 150.518 280.531C154.959 280.531 158.185 278.558 159.703 273.928H154.959C154.617 275.142 152.871 276.47 150.708 276.47C147.71 276.47 146.04 274.914 145.888 271.499H160.044ZM145.888 268.083C145.964 266.565 146.951 263.908 150.366 263.908C152.985 263.908 154.162 265.35 154.655 268.083H145.888ZM163.241 280H168.63V271.157C168.63 267.703 169.996 264.857 173.943 264.857C174.588 264.857 175.385 264.933 175.879 265.047V260.037C175.537 259.923 175.082 259.847 174.702 259.847C172.084 259.847 169.427 261.555 168.44 264.022H168.364V260.378H163.241V280ZM179.168 280H184.558V263.984H188.277V260.378H184.558V259.202C184.558 257.57 185.165 256.963 186.607 256.963C187.29 256.963 187.935 257.001 188.581 257.077V253.054C187.67 253.016 186.683 252.902 185.734 252.902C181.332 252.902 179.168 255.407 179.168 258.86V260.378H175.942V263.984H179.168V280ZM209.227 271.499C209.607 265.464 206.381 259.847 199.701 259.847C193.742 259.847 189.682 264.326 189.682 270.208C189.682 276.281 193.515 280.531 199.701 280.531C204.142 280.531 207.367 278.558 208.886 273.928H204.142C203.8 275.142 202.054 276.47 199.891 276.47C196.893 276.47 195.223 274.914 195.071 271.499H209.227ZM195.071 268.083C195.147 266.565 196.133 263.908 199.549 263.908C202.168 263.908 203.344 265.35 203.838 268.083H195.071ZM231.058 267.286C230.717 262.276 226.466 259.847 221.836 259.847C215.46 259.847 211.816 264.363 211.816 270.474C211.816 276.357 215.801 280.531 221.722 280.531C226.884 280.531 230.489 277.685 231.172 272.485H225.973C225.631 274.876 224.189 276.47 221.684 276.47C218.306 276.47 217.206 273.093 217.206 270.284C217.206 267.4 218.344 263.908 221.798 263.908C224.037 263.908 225.441 265.085 225.783 267.286H231.058ZM241.048 254.496H235.659V260.378H232.395V263.984H235.659V275.56C235.659 279.469 238.543 280.228 241.845 280.228C242.908 280.228 244.084 280.19 244.995 280.038V275.825C244.426 275.939 243.895 275.977 243.325 275.977C241.504 275.977 241.048 275.522 241.048 273.7V263.984H244.995V260.378H241.048V254.496ZM259.299 280H264.688V263.984H268.408V260.378H264.688V259.202C264.688 257.57 265.296 256.963 266.738 256.963C267.421 256.963 268.066 257.001 268.711 257.077V253.054C267.8 253.016 266.814 252.902 265.865 252.902C261.462 252.902 259.299 255.407 259.299 258.86V260.378H256.073V263.984H259.299V280ZM289.168 260.378H283.779V270.664C283.779 274.649 282.526 276.281 279.604 276.281C277.099 276.281 276.15 274.687 276.15 271.461V260.378H270.761V272.447C270.761 277.305 272.203 280.531 277.934 280.531C280.211 280.531 282.564 279.469 283.931 277.267H284.045V280H289.168V260.378ZM293.258 280H298.648V271.157C298.648 267.703 300.014 264.857 303.961 264.857C304.606 264.857 305.403 264.933 305.897 265.047V260.037C305.555 259.923 305.1 259.847 304.72 259.847C302.101 259.847 299.445 261.555 298.458 264.022H298.382V260.378H293.258V280ZM308.677 280H314.066V269.715C314.066 265.73 315.318 264.098 318.241 264.098C320.746 264.098 321.695 265.692 321.695 268.918V280H327.084V267.931C327.084 263.073 325.642 259.847 319.911 259.847C317.634 259.847 315.281 260.91 313.914 263.111H313.8V260.378H308.677V280ZM331.326 280H336.715V260.378H331.326V280ZM336.715 252.902H331.326V257.342H336.715V252.902ZM340.01 273.624C340.238 278.823 344.678 280.531 349.233 280.531C353.711 280.531 358.189 278.861 358.189 273.7C358.189 270.056 355.115 268.918 351.965 268.197C348.891 267.476 345.855 267.21 345.855 265.274C345.855 263.68 347.639 263.453 348.853 263.453C350.789 263.453 352.383 264.022 352.534 266.109H357.658C357.241 261.289 353.293 259.847 349.005 259.847C344.792 259.847 340.465 261.137 340.465 266.147C340.465 269.601 343.578 270.702 346.69 271.385C350.561 272.22 352.8 272.789 352.8 274.421C352.8 276.319 350.827 276.926 349.27 276.926C347.145 276.926 345.172 275.977 345.134 273.624H340.01ZM361.344 280H366.733V269.715C366.733 265.73 367.985 264.098 370.908 264.098C373.413 264.098 374.361 265.692 374.361 268.918V280H379.751V267.931C379.751 263.073 378.308 259.847 372.578 259.847C370.566 259.847 368.213 260.91 366.847 263.111H366.733V252.902H361.344V280ZM383.993 280H389.382V260.378H383.993V280ZM389.382 252.902H383.993V257.342H389.382V252.902ZM393.626 280H399.015V269.715C399.015 265.73 400.267 264.098 403.19 264.098C405.695 264.098 406.643 265.692 406.643 268.918V280H412.033V267.931C412.033 263.073 410.591 259.847 404.86 259.847C402.583 259.847 400.229 260.91 398.863 263.111H398.749V260.378H393.626V280ZM434.986 260.378H429.862V262.997H429.786C428.496 260.72 426.522 259.847 423.941 259.847C418.438 259.847 415.516 264.477 415.516 269.563C415.516 274.952 418.021 279.431 423.903 279.431C426.256 279.431 428.61 278.444 429.786 276.394H429.862V278.975C429.9 281.784 428.534 283.833 425.535 283.833C423.638 283.833 422.006 283.15 421.512 281.139H416.161C416.427 285.617 420.943 287.439 424.814 287.439C433.847 287.439 434.986 281.974 434.986 278.748V260.378ZM425.27 275.37C421.968 275.37 420.905 272.296 420.905 269.487C420.905 266.565 422.233 263.908 425.27 263.908C428.761 263.908 429.862 266.754 429.862 269.943C429.862 272.751 428.344 275.37 425.27 275.37ZM438.376 273.624C438.604 278.823 443.044 280.531 447.598 280.531C452.077 280.531 456.555 278.861 456.555 273.7C456.555 270.056 453.481 268.918 450.331 268.197C447.257 267.476 444.221 267.21 444.221 265.274C444.221 263.68 446.004 263.453 447.219 263.453C449.154 263.453 450.748 264.022 450.9 266.109H456.024C455.606 261.289 451.659 259.847 447.371 259.847C443.158 259.847 438.831 261.137 438.831 266.147C438.831 269.601 441.943 270.702 445.056 271.385C448.927 272.22 451.166 272.789 451.166 274.421C451.166 276.319 449.192 276.926 447.636 276.926C445.511 276.926 443.537 275.977 443.499 273.624H438.376ZM62.2702 318.409C62.2702 319.586 62.1184 322.926 57.9057 322.926C56.1598 322.926 54.6038 322.432 54.6038 320.421C54.6038 318.447 56.1219 317.878 57.7918 317.537C59.4617 317.233 61.3594 317.195 62.2702 316.398V318.409ZM55.211 312.413C55.4008 310.288 56.7291 309.453 58.7786 309.453C60.6762 309.453 62.2702 309.794 62.2702 312.109C62.2702 314.311 59.1961 314.197 55.8942 314.69C52.5543 315.146 49.2145 316.208 49.2145 320.649C49.2145 324.672 52.1748 326.531 55.8942 326.531C58.2852 326.531 60.7901 325.886 62.498 324.102C62.5359 324.748 62.6877 325.393 62.8775 326H68.3427C67.8493 325.203 67.6595 323.419 67.6595 321.635V311.426C67.6595 306.72 62.9534 305.847 59.0443 305.847C54.6417 305.847 50.1254 307.365 49.8217 312.413H55.211ZM78.6741 300.496H73.2848V306.378H70.0209V309.984H73.2848V321.56C73.2848 325.469 76.1693 326.228 79.4711 326.228C80.5338 326.228 81.7104 326.19 82.6212 326.038V321.825C82.0519 321.939 81.5206 321.977 80.9513 321.977C79.1296 321.977 78.6741 321.522 78.6741 319.7V309.984H82.6212V306.378H78.6741V300.496ZM102.58 300.496H97.1906V306.378H93.9267V309.984H97.1906V321.56C97.1906 325.469 100.075 326.228 103.377 326.228C104.44 326.228 105.616 326.19 106.527 326.038V321.825C105.958 321.939 105.426 321.977 104.857 321.977C103.035 321.977 102.58 321.522 102.58 319.7V309.984H106.527V306.378H102.58V300.496ZM109.091 326H114.48V315.715C114.48 311.73 115.733 310.098 118.655 310.098C121.16 310.098 122.109 311.692 122.109 314.918V326H127.498V313.931C127.498 309.073 126.056 305.847 120.325 305.847C118.314 305.847 115.961 306.91 114.594 309.111H114.48V298.902H109.091V326ZM150.185 317.499C150.565 311.464 147.339 305.847 140.659 305.847C134.701 305.847 130.64 310.326 130.64 316.208C130.64 322.281 134.473 326.531 140.659 326.531C145.1 326.531 148.326 324.558 149.844 319.928H145.1C144.758 321.142 143.012 322.47 140.849 322.47C137.851 322.47 136.181 320.914 136.029 317.499H150.185ZM136.029 314.083C136.105 312.565 137.092 309.908 140.507 309.908C143.126 309.908 144.303 311.35 144.796 314.083H136.029ZM163.945 332.907H169.334V323.571H169.41C170.7 325.507 172.94 326.531 175.293 326.531C181.024 326.531 183.908 321.635 183.908 316.398C183.908 310.819 181.137 305.847 174.989 305.847C172.56 305.847 170.435 306.796 169.144 308.883H169.068V306.378H163.945V332.907ZM173.85 322.47C170.359 322.47 169.144 319.434 169.144 316.246C169.144 313.058 170.283 309.908 173.813 309.908C177.266 309.908 178.519 313.134 178.519 316.246C178.519 319.434 177.38 322.47 173.85 322.47ZM205.743 317.499C206.123 311.464 202.897 305.847 196.217 305.847C190.258 305.847 186.198 310.326 186.198 316.208C186.198 322.281 190.031 326.531 196.217 326.531C200.658 326.531 203.884 324.558 205.402 319.928H200.658C200.316 321.142 198.57 322.47 196.407 322.47C193.409 322.47 191.739 320.914 191.587 317.499H205.743ZM191.587 314.083C191.663 312.565 192.65 309.908 196.065 309.908C198.684 309.908 199.861 311.35 200.354 314.083H191.587ZM208.94 326H214.329V317.157C214.329 313.703 215.695 310.857 219.642 310.857C220.287 310.857 221.084 310.933 221.578 311.047V306.037C221.236 305.923 220.781 305.847 220.401 305.847C217.783 305.847 215.126 307.555 214.139 310.022H214.063V306.378H208.94V326ZM224.867 326H230.257V309.984H233.976V306.378H230.257V305.202C230.257 303.57 230.864 302.963 232.306 302.963C232.989 302.963 233.634 303.001 234.28 303.077V299.054C233.369 299.016 232.382 298.902 231.433 298.902C227.031 298.902 224.867 301.407 224.867 304.86V306.378H221.641V309.984H224.867V326ZM254.926 317.499C255.306 311.464 252.08 305.847 245.4 305.847C239.441 305.847 235.38 310.326 235.38 316.208C235.38 322.281 239.214 326.531 245.4 326.531C249.84 326.531 253.066 324.558 254.585 319.928H249.84C249.499 321.142 247.753 322.47 245.59 322.47C242.592 322.47 240.922 320.914 240.77 317.499H254.926ZM240.77 314.083C240.846 312.565 241.832 309.908 245.248 309.908C247.867 309.908 249.043 311.35 249.537 314.083H240.77ZM276.757 313.286C276.416 308.276 272.165 305.847 267.535 305.847C261.159 305.847 257.515 310.363 257.515 316.474C257.515 322.357 261.5 326.531 267.421 326.531C272.582 326.531 276.188 323.685 276.871 318.485H271.672C271.33 320.876 269.888 322.47 267.383 322.47C264.005 322.47 262.905 319.093 262.905 316.284C262.905 313.4 264.043 309.908 267.497 309.908C269.736 309.908 271.14 311.085 271.482 313.286H276.757ZM286.747 300.496H281.358V306.378H278.094V309.984H281.358V321.56C281.358 325.469 284.242 326.228 287.544 326.228C288.607 326.228 289.783 326.19 290.694 326.038V321.825C290.125 321.939 289.594 321.977 289.024 321.977C287.203 321.977 286.747 321.522 286.747 319.7V309.984H290.694V306.378H286.747V300.496ZM303.821 332.907H309.211V323.571H309.287C310.577 325.507 312.816 326.531 315.169 326.531C320.9 326.531 323.785 321.635 323.785 316.398C323.785 310.819 321.014 305.847 314.866 305.847C312.437 305.847 310.311 306.796 309.021 308.883H308.945V306.378H303.821V332.907ZM313.727 322.47C310.235 322.47 309.021 319.434 309.021 316.246C309.021 313.058 310.16 309.908 313.689 309.908C317.143 309.908 318.395 313.134 318.395 316.246C318.395 319.434 317.257 322.47 313.727 322.47ZM327.023 326H332.412V317.157C332.412 313.703 333.779 310.857 337.726 310.857C338.371 310.857 339.168 310.933 339.661 311.047V306.037C339.32 305.923 338.864 305.847 338.485 305.847C335.866 305.847 333.209 307.555 332.223 310.022H332.147V306.378H327.023V326ZM341.926 326H347.315V306.378H341.926V326ZM347.315 298.902H341.926V303.342H347.315V298.902ZM370.194 313.286C369.852 308.276 365.601 305.847 360.971 305.847C354.595 305.847 350.952 310.363 350.952 316.474C350.952 322.357 354.937 326.531 360.857 326.531C366.019 326.531 369.624 323.685 370.308 318.485H365.108C364.766 320.876 363.324 322.47 360.819 322.47C357.442 322.47 356.341 319.093 356.341 316.284C356.341 313.4 357.48 309.908 360.933 309.908C363.172 309.908 364.577 311.085 364.918 313.286H370.194ZM391.949 317.499C392.328 311.464 389.102 305.847 382.423 305.847C376.464 305.847 372.403 310.326 372.403 316.208C372.403 322.281 376.237 326.531 382.423 326.531C386.863 326.531 390.089 324.558 391.607 319.928H386.863C386.522 321.142 384.776 322.47 382.613 322.47C379.614 322.47 377.944 320.914 377.793 317.499H391.949ZM377.793 314.083C377.868 312.565 378.855 309.908 382.271 309.908C384.89 309.908 386.066 311.35 386.56 314.083H377.793Z" fill="#ED0000"/>
<mask id="mask0_92_380" style="mask-type:alpha" maskUnits="userSpaceOnUse" x="48" y="399" width="214" height="56">
<path fill-rule="evenodd" clip-rule="evenodd" d="M51 399C49.343 399 48 400.343 48 402V452C48 453.657 49.343 455 51 455H259C260.657 455 262 453.657 262 452V402C262 400.343 260.657 399 259 399H51Z" fill="white"/>
</mask>
<g mask="url(#mask0_92_380)">
<path fill-rule="evenodd" clip-rule="evenodd" d="M47 456H263V398H47V456Z" fill="white"/>
</g>
<path fill-rule="evenodd" clip-rule="evenodd" d="M110.496 421.87C110.34 417.788 107.454 415.994 103.658 415.994C100.278 415.994 96.9243 417.658 96.9243 421.428C96.9243 424.834 99.9143 425.692 102.878 426.342C105.842 426.992 108.806 427.434 108.806 429.982C108.806 432.66 106.336 433.362 104.1 433.362C101.292 433.362 98.6923 432.01 98.6923 428.89H96.3523C96.3523 433.414 99.8623 435.442 104.022 435.442C107.402 435.442 111.276 433.856 111.276 429.904C111.276 426.264 108.312 425.224 105.348 424.548C102.358 423.872 99.3943 423.534 99.3943 421.246C99.3943 418.828 101.474 418.074 103.554 418.074C106.102 418.074 107.87 419.218 108.156 421.87H110.496ZM113.333 435H115.543V427.408C115.543 424.99 116.843 423.196 119.521 423.196C121.211 423.196 122.251 424.262 122.251 425.9V435H124.461V426.16C124.461 423.274 123.369 421.246 119.833 421.246C118.221 421.246 116.323 421.922 115.595 423.534H115.543V416.436H113.333V435ZM126.472 428.292C126.472 432.218 128.734 435.312 132.998 435.312C137.262 435.312 139.524 432.218 139.524 428.292C139.524 424.34 137.262 421.246 132.998 421.246C128.734 421.246 126.472 424.34 126.472 428.292ZM128.812 428.292C128.812 425.016 130.684 423.196 132.998 423.196C135.312 423.196 137.184 425.016 137.184 428.292C137.184 431.542 135.312 433.362 132.998 433.362C130.684 433.362 128.812 431.542 128.812 428.292ZM152.028 428.162C152.028 430.788 151.014 433.362 147.997 433.362C144.956 433.362 143.76 430.918 143.76 428.266C143.76 425.744 144.904 423.196 147.867 423.196C150.728 423.196 152.028 425.64 152.028 428.162ZM141.628 440.148H143.837V433.206H143.889C144.878 434.792 146.853 435.312 148.232 435.312C152.34 435.312 154.368 432.114 154.368 428.318C154.368 424.522 152.314 421.246 148.18 421.246C146.333 421.246 144.617 421.896 143.889 423.378H143.837V421.558H141.628V440.148ZM163.376 435H165.716V420.102H165.768L175.466 435H178.17V416.436H175.83V431.49H175.778L166.002 416.436H163.376V435ZM180.493 428.292C180.493 432.218 182.755 435.312 187.019 435.312C191.283 435.312 193.545 432.218 193.545 428.292C193.545 424.34 191.283 421.246 187.019 421.246C182.755 421.246 180.493 424.34 180.493 428.292ZM182.833 428.292C182.833 425.016 184.705 423.196 187.019 423.196C189.333 423.196 191.205 425.016 191.205 428.292C191.205 431.542 189.333 433.362 187.019 433.362C184.705 433.362 182.833 431.542 182.833 428.292ZM213.173 421.558H210.885L207.869 432.556H207.817L205.009 421.558H202.591L199.887 432.556H199.835L196.793 421.558H194.349L198.665 435H201.057L203.761 424.314H203.813L206.543 435H208.883L213.173 421.558Z" fill="white"/>
<mask id="mask1_92_380" style="mask-type:alpha" maskUnits="userSpaceOnUse" x="96" y="415" width="118" height="26">
<path fill-rule="evenodd" clip-rule="evenodd" d="M96.9241 421.428C96.9241 424.834 99.9151 425.692 102.878 426.342C105.842 426.992 108.807 427.434 108.807 429.982C108.807 432.66 106.336 433.362 104.1 433.362C101.292 433.362 98.6921 432.01 98.6921 428.89H96.3521C96.3521 433.414 99.8621 435.442 104.022 435.442C107.403 435.442 111.276 433.856 111.276 429.904C111.276 426.264 108.313 425.224 105.348 424.548C102.358 423.872 99.3941 423.534 99.3941 421.246C99.3941 418.828 101.474 418.074 103.554 418.074C106.102 418.074 107.871 419.218 108.156 421.87H110.496C110.34 417.788 107.454 415.994 103.659 415.994C100.278 415.994 96.9241 417.658 96.9241 421.428ZM175.83 416.436V431.49H175.778L166.002 416.436H163.376V435H165.716V420.102H165.768L175.466 435H178.17V416.436H175.83ZM113.334 416.436V435H115.543V427.408C115.543 424.99 116.844 423.196 119.521 423.196C121.211 423.196 122.252 424.262 122.252 425.9V435H124.461V426.16C124.461 423.274 123.37 421.246 119.833 421.246C118.221 421.246 116.323 421.922 115.595 423.534H115.543V416.436H113.334ZM180.493 428.292C180.493 432.218 182.755 435.312 187.019 435.312C191.283 435.312 193.545 432.218 193.545 428.292C193.545 424.34 191.283 421.246 187.019 421.246C182.755 421.246 180.493 424.34 180.493 428.292ZM182.833 428.292C182.833 425.016 184.705 423.196 187.019 423.196C189.333 423.196 191.205 425.016 191.205 428.292C191.205 431.542 189.333 433.362 187.019 433.362C184.705 433.362 182.833 431.542 182.833 428.292ZM143.889 423.378H143.838V421.558H141.628V440.148H143.838V433.206H143.889C144.878 434.792 146.854 435.312 148.232 435.312C152.34 435.312 154.368 432.114 154.368 428.318C154.368 424.522 152.314 421.246 148.18 421.246C146.334 421.246 144.618 421.896 143.889 423.378ZM143.76 428.266C143.76 425.744 144.904 423.196 147.868 423.196C150.728 423.196 152.028 425.64 152.028 428.162C152.028 430.788 151.014 433.362 147.998 433.362C144.956 433.362 143.76 430.918 143.76 428.266ZM126.473 428.292C126.473 432.218 128.734 435.312 132.999 435.312C137.263 435.312 139.525 432.218 139.525 428.292C139.525 424.34 137.263 421.246 132.999 421.246C128.734 421.246 126.473 424.34 126.473 428.292ZM128.813 428.292C128.813 425.016 130.685 423.196 132.999 423.196C135.313 423.196 137.185 425.016 137.185 428.292C137.185 431.542 135.313 433.362 132.999 433.362C130.685 433.362 128.813 431.542 128.813 428.292ZM210.885 421.558L207.869 432.556H207.817L205.009 421.558H202.591L199.887 432.556H199.835L196.793 421.558H194.349L198.665 435H201.057L203.761 424.314H203.813L206.543 435H208.883L213.173 421.558H210.885Z" fill="white"/>
</mask>
<g mask="url(#mask1_92_380)">
<path fill-rule="evenodd" clip-rule="evenodd" d="M95.3521 441.148H214.173V414.994H95.3521V441.148Z" fill="#252525"/>
</g>
</g>
<defs>
<clipPath id="clip0_92_380">
<rect width="1400" height="550" fill="white"/>
</clipPath>
</defs>
</svg>
