<svg width="1400" height="550" viewBox="0 0 1400 550" fill="none" xmlns="http://www.w3.org/2000/svg">
<path d="M43.1395 140H55.9884V133.718H56.1787C59.1292 139.143 65.1253 141.332 72.3587 141.332C82.1619 141.332 92.7265 133.433 92.7265 115.349C92.7265 97.3609 82.1619 89.4613 72.3587 89.4613C66.2674 89.4613 60.1761 91.7455 56.8449 96.7899H56.6546V72.044H43.1395V140ZM79.2114 115.444C79.2114 123.63 75.6899 131.149 67.6951 131.149C59.7002 131.149 56.1787 123.63 56.1787 115.444C56.1787 107.164 59.7002 99.6452 67.6951 99.6452C75.6899 99.6452 79.2114 107.164 79.2114 115.444ZM128.163 120.965C128.163 123.915 127.783 132.291 117.218 132.291C112.84 132.291 108.938 131.053 108.938 126.009C108.938 121.06 112.745 119.632 116.933 118.776C121.12 118.014 125.879 117.919 128.163 115.92V120.965ZM110.461 105.927C110.936 100.597 114.268 98.503 119.407 98.503C124.166 98.503 128.163 99.3596 128.163 105.165C128.163 110.686 120.454 110.4 112.174 111.637C103.798 112.78 95.4227 115.444 95.4227 126.58C95.4227 136.669 102.846 141.332 112.174 141.332C118.17 141.332 124.451 139.714 128.734 135.241C128.83 136.859 129.21 138.477 129.686 140H143.392C142.154 138.001 141.678 133.528 141.678 129.055V103.452C141.678 91.6503 129.877 89.4613 120.073 89.4613C109.033 89.4613 97.7069 93.2683 96.9455 105.927H110.461ZM195.093 108.116C194.237 95.5526 183.577 89.4613 171.965 89.4613C155.976 89.4613 146.839 100.787 146.839 116.111C146.839 130.863 156.832 141.332 171.68 141.332C184.624 141.332 193.666 134.194 195.379 121.155H182.34C181.483 127.151 177.866 131.149 171.585 131.149C163.114 131.149 160.354 122.678 160.354 115.635C160.354 108.401 163.209 99.6452 171.87 99.6452C177.486 99.6452 181.007 102.596 181.864 108.116H195.093ZM200.444 140H213.959V123.059L219.194 118.014L232.709 140H249.079L228.426 108.877L246.985 90.7937H230.996L213.959 108.497V72.044H200.444V140ZM289.866 76.0414H276.351V90.7937H268.166V99.8355H276.351V128.864C276.351 138.668 283.584 140.571 291.865 140.571C294.53 140.571 297.48 140.476 299.764 140.095V129.531C298.337 129.816 297.004 129.911 295.577 129.911C291.008 129.911 289.866 128.769 289.866 124.201V99.8355H299.764V90.7937H289.866V76.0414ZM300.865 115.444C300.865 131.053 310.858 141.332 326.277 141.332C341.791 141.332 351.784 131.053 351.784 115.444C351.784 99.7403 341.791 89.4613 326.277 89.4613C310.858 89.4613 300.865 99.7403 300.865 115.444ZM314.38 115.444C314.38 107.545 317.14 99.6452 326.277 99.6452C335.509 99.6452 338.269 107.545 338.269 115.444C338.269 123.249 335.509 131.149 326.277 131.149C317.14 131.149 314.38 123.249 314.38 115.444ZM89.8712 191.116C89.0146 178.553 78.3548 172.461 66.7433 172.461C50.7537 172.461 41.6167 183.787 41.6167 199.111C41.6167 213.863 51.6102 224.332 66.4578 224.332C79.4018 224.332 88.4436 217.194 90.1567 204.155H77.1175C76.261 210.151 72.6443 214.149 66.3626 214.149C57.8919 214.149 55.1318 205.678 55.1318 198.635C55.1318 191.401 57.9871 182.645 66.6481 182.645C72.2635 182.645 75.7851 185.596 76.6417 191.116H89.8712ZM124.631 203.965C124.631 206.915 124.251 215.291 113.686 215.291C109.308 215.291 105.406 214.053 105.406 209.009C105.406 204.06 109.213 202.632 113.401 201.776C117.588 201.014 122.347 200.919 124.631 198.92V203.965ZM106.929 188.927C107.404 183.597 110.736 181.503 115.875 181.503C120.634 181.503 124.631 182.36 124.631 188.165C124.631 193.686 116.922 193.4 108.642 194.637C100.266 195.78 91.8907 198.444 91.8907 209.58C91.8907 219.669 99.3145 224.332 108.642 224.332C114.638 224.332 120.92 222.714 125.203 218.241C125.298 219.859 125.678 221.477 126.154 223H139.86C138.622 221.001 138.147 216.528 138.147 212.055V186.452C138.147 174.65 126.345 172.461 116.541 172.461C105.501 172.461 94.175 176.268 93.4135 188.927H106.929ZM145.21 223H158.725V194.447C158.725 184.834 165.197 183.121 167.862 183.121C176.428 183.121 176.048 189.688 176.048 195.399V223H189.563V195.589C189.563 189.403 190.99 183.121 198.604 183.121C206.314 183.121 206.885 188.546 206.885 195.113V223H220.4V190.069C220.4 177.315 212.881 172.461 202.411 172.461C195.559 172.461 190.419 176.364 187.564 180.646C184.899 174.746 179.379 172.461 173.192 172.461C166.815 172.461 161.676 175.412 158.154 180.456H157.964V173.794H145.21V223ZM227.276 240.322H240.791V216.909H240.982C244.218 221.763 249.833 224.332 255.734 224.332C270.106 224.332 277.339 212.055 277.339 198.92C277.339 184.929 270.391 172.461 254.973 172.461C248.881 172.461 243.552 174.841 240.316 180.075H240.125V173.794H227.276V240.322ZM252.117 214.149C243.361 214.149 240.316 206.534 240.316 198.54C240.316 190.545 243.171 182.645 252.022 182.645C260.683 182.645 263.824 190.735 263.824 198.54C263.824 206.534 260.969 214.149 252.117 214.149ZM327.814 173.794H314.299V199.587C314.299 209.58 311.158 213.673 303.829 213.673C297.548 213.673 295.168 209.675 295.168 201.585V173.794H281.653V204.06C281.653 216.242 285.27 224.332 299.642 224.332C305.352 224.332 311.253 221.668 314.68 216.147H314.965V223H327.814V173.794ZM331.885 207.01C332.456 220.05 343.592 224.332 355.013 224.332C366.244 224.332 377.475 220.145 377.475 207.201C377.475 198.064 369.765 195.208 361.866 193.4C354.156 191.592 346.542 190.926 346.542 186.072C346.542 182.074 351.015 181.503 354.061 181.503C358.915 181.503 362.913 182.931 363.293 188.165H376.142C375.095 176.078 365.197 172.461 354.442 172.461C343.877 172.461 333.027 175.697 333.027 188.261C333.027 196.922 340.832 199.682 348.636 201.395C358.344 203.489 363.959 204.916 363.959 209.009C363.959 213.768 359.01 215.291 355.108 215.291C349.778 215.291 344.829 212.911 344.734 207.01H331.885Z" fill="white"/>
<mask id="mask0_77_1169" style="mask-type:alpha" maskUnits="userSpaceOnUse" x="38" y="416" width="214" height="56">
<path fill-rule="evenodd" clip-rule="evenodd" d="M41 416C39.343 416 38 417.343 38 419V469C38 470.657 39.343 472 41 472H249C250.657 472 252 470.657 252 469V419C252 417.343 250.657 416 249 416H41Z" fill="white"/>
</mask>
<g mask="url(#mask0_77_1169)">
<path fill-rule="evenodd" clip-rule="evenodd" d="M37 473H253V415H37V473Z" fill="white"/>
</g>
<path fill-rule="evenodd" clip-rule="evenodd" d="M100.496 438.87C100.34 434.788 97.4543 432.994 93.6583 432.994C90.2783 432.994 86.9243 434.658 86.9243 438.428C86.9243 441.834 89.9143 442.692 92.8783 443.342C95.8423 443.992 98.8063 444.434 98.8063 446.982C98.8063 449.66 96.3363 450.362 94.1003 450.362C91.2923 450.362 88.6923 449.01 88.6923 445.89H86.3523C86.3523 450.414 89.8623 452.442 94.0223 452.442C97.4023 452.442 101.276 450.856 101.276 446.904C101.276 443.264 98.3123 442.224 95.3483 441.548C92.3583 440.872 89.3943 440.534 89.3943 438.246C89.3943 435.828 91.4743 435.074 93.5543 435.074C96.1023 435.074 97.8703 436.218 98.1563 438.87H100.496ZM103.333 452H105.543V444.408C105.543 441.99 106.843 440.196 109.521 440.196C111.211 440.196 112.251 441.262 112.251 442.9V452H114.461V443.16C114.461 440.274 113.369 438.246 109.833 438.246C108.221 438.246 106.323 438.922 105.595 440.534H105.543V433.436H103.333V452ZM116.472 445.292C116.472 449.218 118.734 452.312 122.998 452.312C127.262 452.312 129.524 449.218 129.524 445.292C129.524 441.34 127.262 438.246 122.998 438.246C118.734 438.246 116.472 441.34 116.472 445.292ZM118.812 445.292C118.812 442.016 120.684 440.196 122.998 440.196C125.312 440.196 127.184 442.016 127.184 445.292C127.184 448.542 125.312 450.362 122.998 450.362C120.684 450.362 118.812 448.542 118.812 445.292ZM142.028 445.162C142.028 447.788 141.014 450.362 137.997 450.362C134.956 450.362 133.76 447.918 133.76 445.266C133.76 442.744 134.904 440.196 137.867 440.196C140.728 440.196 142.028 442.64 142.028 445.162ZM131.628 457.148H133.837V450.206H133.889C134.878 451.792 136.853 452.312 138.232 452.312C142.34 452.312 144.368 449.114 144.368 445.318C144.368 441.522 142.314 438.246 138.18 438.246C136.333 438.246 134.617 438.896 133.889 440.378H133.837V438.558H131.628V457.148ZM153.376 452H155.716V437.102H155.768L165.466 452H168.17V433.436H165.83V448.49H165.778L156.002 433.436H153.376V452ZM170.493 445.292C170.493 449.218 172.755 452.312 177.019 452.312C181.283 452.312 183.545 449.218 183.545 445.292C183.545 441.34 181.283 438.246 177.019 438.246C172.755 438.246 170.493 441.34 170.493 445.292ZM172.833 445.292C172.833 442.016 174.705 440.196 177.019 440.196C179.333 440.196 181.205 442.016 181.205 445.292C181.205 448.542 179.333 450.362 177.019 450.362C174.705 450.362 172.833 448.542 172.833 445.292ZM203.173 438.558H200.885L197.869 449.556H197.817L195.009 438.558H192.591L189.887 449.556H189.835L186.793 438.558H184.349L188.665 452H191.057L193.761 441.314H193.813L196.543 452H198.883L203.173 438.558Z" fill="white"/>
<mask id="mask1_77_1169" style="mask-type:alpha" maskUnits="userSpaceOnUse" x="86" y="432" width="118" height="26">
<path fill-rule="evenodd" clip-rule="evenodd" d="M86.9241 438.428C86.9241 441.834 89.9151 442.692 92.8781 443.342C95.8421 443.992 98.8071 444.434 98.8071 446.982C98.8071 449.66 96.3361 450.362 94.1001 450.362C91.2921 450.362 88.6921 449.01 88.6921 445.89H86.3521C86.3521 450.414 89.8621 452.442 94.0221 452.442C97.4031 452.442 101.276 450.856 101.276 446.904C101.276 443.264 98.3131 442.224 95.3481 441.548C92.3581 440.872 89.3941 440.534 89.3941 438.246C89.3941 435.828 91.4741 435.074 93.5541 435.074C96.1021 435.074 97.8711 436.218 98.1561 438.87H100.496C100.34 434.788 97.4541 432.994 93.6591 432.994C90.2781 432.994 86.9241 434.658 86.9241 438.428ZM165.83 433.436V448.49H165.778L156.002 433.436H153.376V452H155.716V437.102H155.768L165.466 452H168.17V433.436H165.83ZM103.334 433.436V452H105.543V444.408C105.543 441.99 106.844 440.196 109.521 440.196C111.211 440.196 112.252 441.262 112.252 442.9V452H114.461V443.16C114.461 440.274 113.37 438.246 109.833 438.246C108.221 438.246 106.323 438.922 105.595 440.534H105.543V433.436H103.334ZM170.493 445.292C170.493 449.218 172.755 452.312 177.019 452.312C181.283 452.312 183.545 449.218 183.545 445.292C183.545 441.34 181.283 438.246 177.019 438.246C172.755 438.246 170.493 441.34 170.493 445.292ZM172.833 445.292C172.833 442.016 174.705 440.196 177.019 440.196C179.333 440.196 181.205 442.016 181.205 445.292C181.205 448.542 179.333 450.362 177.019 450.362C174.705 450.362 172.833 448.542 172.833 445.292ZM133.889 440.378H133.838V438.558H131.628V457.148H133.838V450.206H133.889C134.878 451.792 136.854 452.312 138.232 452.312C142.34 452.312 144.368 449.114 144.368 445.318C144.368 441.522 142.314 438.246 138.18 438.246C136.334 438.246 134.618 438.896 133.889 440.378ZM133.76 445.266C133.76 442.744 134.904 440.196 137.868 440.196C140.728 440.196 142.028 442.64 142.028 445.162C142.028 447.788 141.014 450.362 137.998 450.362C134.956 450.362 133.76 447.918 133.76 445.266ZM116.473 445.292C116.473 449.218 118.734 452.312 122.999 452.312C127.263 452.312 129.525 449.218 129.525 445.292C129.525 441.34 127.263 438.246 122.999 438.246C118.734 438.246 116.473 441.34 116.473 445.292ZM118.813 445.292C118.813 442.016 120.685 440.196 122.999 440.196C125.313 440.196 127.185 442.016 127.185 445.292C127.185 448.542 125.313 450.362 122.999 450.362C120.685 450.362 118.813 448.542 118.813 445.292ZM200.885 438.558L197.869 449.556H197.817L195.009 438.558H192.591L189.887 449.556H189.835L186.793 438.558H184.349L188.665 452H191.057L193.761 441.314H193.813L196.543 452H198.883L203.173 438.558H200.885Z" fill="white"/>
</mask>
<g mask="url(#mask1_77_1169)">
<path fill-rule="evenodd" clip-rule="evenodd" d="M85.3521 458.148H204.173V431.994H85.3521V458.148Z" fill="#252525"/>
</g>
<path d="M32 267H432V308H32V267Z" fill="#BC584D"/>
<path d="M32 314H264V355H32V314Z" fill="#BC584D"/>
<path d="M60.912 279.378H55.7883V281.997H55.7124C54.422 279.72 52.4485 278.847 49.8677 278.847C44.3646 278.847 41.4422 283.477 41.4422 288.563C41.4422 293.952 43.9471 298.431 49.8298 298.431C52.1828 298.431 54.5359 297.444 55.7124 295.394H55.7883V297.975C55.8263 300.784 54.46 302.833 51.4617 302.833C49.5641 302.833 47.9321 302.15 47.4387 300.139H42.0874C42.3531 304.617 46.8694 306.439 50.7406 306.439C59.7734 306.439 60.912 300.974 60.912 297.748V279.378ZM51.1961 294.37C47.8942 294.37 46.8315 291.296 46.8315 288.487C46.8315 285.565 48.1598 282.908 51.1961 282.908C54.6877 282.908 55.7883 285.754 55.7883 288.943C55.7883 291.751 54.2702 294.37 51.1961 294.37ZM65.251 299H70.6403V290.157C70.6403 286.703 72.0066 283.857 75.9537 283.857C76.5989 283.857 77.3959 283.933 77.8893 284.047V279.037C77.5477 278.923 77.0923 278.847 76.7128 278.847C74.094 278.847 71.4373 280.555 70.4506 283.022H70.3747V279.378H65.251V299ZM97.9319 290.499C98.3115 284.464 95.0855 278.847 88.4058 278.847C82.4472 278.847 78.3863 283.326 78.3863 289.208C78.3863 295.281 82.2195 299.531 88.4058 299.531C92.8463 299.531 96.0722 297.558 97.5903 292.928H92.8463C92.5047 294.142 90.7589 295.47 88.5955 295.47C85.5973 295.47 83.9274 293.914 83.7755 290.499H97.9319ZM83.7755 287.083C83.8514 285.565 84.8382 282.908 88.254 282.908C90.8727 282.908 92.0492 284.35 92.5426 287.083H83.7755ZM119.725 290.499C120.105 284.464 116.879 278.847 110.199 278.847C104.24 278.847 100.179 283.326 100.179 289.208C100.179 295.281 104.013 299.531 110.199 299.531C114.639 299.531 117.865 297.558 119.384 292.928H114.639C114.298 294.142 112.552 295.47 110.389 295.47C107.39 295.47 105.721 293.914 105.569 290.499H119.725ZM105.569 287.083C105.645 285.565 106.631 282.908 110.047 282.908C112.666 282.908 113.842 284.35 114.336 287.083H105.569ZM129.753 273.496H124.364V279.378H121.1V282.984H124.364V294.56C124.364 298.469 127.248 299.228 130.55 299.228C131.613 299.228 132.789 299.19 133.7 299.038V294.825C133.131 294.939 132.599 294.977 132.03 294.977C130.208 294.977 129.753 294.522 129.753 292.7V282.984H133.7V279.378H129.753V273.496ZM153.659 273.496H148.269V279.378H145.006V282.984H148.269V294.56C148.269 298.469 151.154 299.228 154.456 299.228C155.518 299.228 156.695 299.19 157.606 299.038V294.825C157.037 294.939 156.505 294.977 155.936 294.977C154.114 294.977 153.659 294.522 153.659 292.7V282.984H157.606V279.378H153.659V273.496ZM160.17 299H165.559V288.715C165.559 284.73 166.812 283.098 169.734 283.098C172.239 283.098 173.188 284.692 173.188 287.918V299H178.577V286.931C178.577 282.073 177.135 278.847 171.404 278.847C169.393 278.847 167.039 279.91 165.673 282.111H165.559V271.902H160.17V299ZM201.264 290.499C201.644 284.464 198.418 278.847 191.738 278.847C185.78 278.847 181.719 283.326 181.719 289.208C181.719 295.281 185.552 299.531 191.738 299.531C196.179 299.531 199.405 297.558 200.923 292.928H196.179C195.837 294.142 194.091 295.47 191.928 295.47C188.93 295.47 187.26 293.914 187.108 290.499H201.264ZM187.108 287.083C187.184 285.565 188.171 282.908 191.586 282.908C194.205 282.908 195.382 284.35 195.875 287.083H187.108ZM215.024 299H220.413V288.715C220.413 284.73 221.665 283.098 224.588 283.098C227.093 283.098 228.041 284.692 228.041 287.918V299H233.431V286.931C233.431 282.073 231.988 278.847 226.258 278.847C223.98 278.847 221.627 279.91 220.261 282.111H220.147V279.378H215.024V299ZM256.118 290.499C256.497 284.464 253.271 278.847 246.592 278.847C240.633 278.847 236.572 283.326 236.572 289.208C236.572 295.281 240.405 299.531 246.592 299.531C251.032 299.531 254.258 297.558 255.776 292.928H251.032C250.691 294.142 248.945 295.47 246.781 295.47C243.783 295.47 242.113 293.914 241.961 290.499H256.118ZM241.961 287.083C242.037 285.565 243.024 282.908 246.44 282.908C249.059 282.908 250.235 284.35 250.729 287.083H241.961ZM287.931 279.378H282.389L278.784 292.662H278.708L275.368 279.378H270.131L266.867 292.7H266.791L263.185 279.378H257.492L263.717 299H269.296L272.636 285.83H272.711L276.203 299H281.744L287.931 279.378ZM299.839 292.624C300.067 297.823 304.507 299.531 309.062 299.531C313.54 299.531 318.018 297.861 318.018 292.7C318.018 289.056 314.944 287.918 311.794 287.197C308.72 286.476 305.684 286.21 305.684 284.274C305.684 282.68 307.468 282.453 308.682 282.453C310.618 282.453 312.212 283.022 312.364 285.109H317.487C317.07 280.289 313.123 278.847 308.834 278.847C304.621 278.847 300.295 280.137 300.295 285.147C300.295 288.601 303.407 289.702 306.519 290.385C310.39 291.22 312.629 291.789 312.629 293.421C312.629 295.319 310.656 295.926 309.1 295.926C306.974 295.926 305.001 294.977 304.963 292.624H299.839ZM339.808 286.286C339.466 281.276 335.215 278.847 330.585 278.847C324.209 278.847 320.565 283.363 320.565 289.474C320.565 295.357 324.551 299.531 330.471 299.531C335.633 299.531 339.238 296.685 339.921 291.485H334.722C334.38 293.876 332.938 295.47 330.433 295.47C327.055 295.47 325.955 292.093 325.955 289.284C325.955 286.4 327.093 282.908 330.547 282.908C332.786 282.908 334.191 284.085 334.532 286.286H339.808ZM342.966 299H348.355V288.715C348.355 284.73 349.608 283.098 352.53 283.098C355.035 283.098 355.984 284.692 355.984 287.918V299H361.373V286.931C361.373 282.073 359.931 278.847 354.2 278.847C352.188 278.847 349.835 279.91 348.469 282.111H348.355V271.902H342.966V299ZM364.856 289.208C364.856 295.432 368.841 299.531 374.989 299.531C381.176 299.531 385.161 295.432 385.161 289.208C385.161 282.946 381.176 278.847 374.989 278.847C368.841 278.847 364.856 282.946 364.856 289.208ZM370.245 289.208C370.245 286.058 371.346 282.908 374.989 282.908C378.671 282.908 379.771 286.058 379.771 289.208C379.771 292.32 378.671 295.47 374.989 295.47C371.346 295.47 370.245 292.32 370.245 289.208ZM388.058 289.208C388.058 295.432 392.043 299.531 398.191 299.531C404.377 299.531 408.362 295.432 408.362 289.208C408.362 282.946 404.377 278.847 398.191 278.847C392.043 278.847 388.058 282.946 388.058 289.208ZM393.447 289.208C393.447 286.058 394.548 282.908 398.191 282.908C401.872 282.908 402.973 286.058 402.973 289.208C402.973 292.32 401.872 295.47 398.191 295.47C394.548 295.47 393.447 292.32 393.447 289.208ZM412.018 299H417.408V271.902H412.018V299ZM59.9252 325.378H54.3461L50.0575 338.814H49.9816L45.5411 325.378H39.7723L46.6797 343.786C47.2869 345.342 46.6797 347.277 44.82 347.467C43.7573 347.505 42.6946 347.353 41.6699 347.277V351.718C42.7706 351.831 43.8712 351.907 44.9718 351.907C48.6912 351.907 50.5509 350.617 51.7274 347.467L59.9252 325.378ZM80.3269 336.499C80.7064 330.464 77.4804 324.847 70.8007 324.847C64.8422 324.847 60.7812 329.326 60.7812 335.208C60.7812 341.281 64.6144 345.531 70.8007 345.531C75.2412 345.531 78.4672 343.558 79.9853 338.928H75.2412C74.8996 340.142 73.1538 341.47 70.9905 341.47C67.9922 341.47 66.3223 339.914 66.1705 336.499H80.3269ZM66.1705 333.083C66.2464 331.565 67.2332 328.908 70.6489 328.908C73.2677 328.908 74.4442 330.35 74.9376 333.083H66.1705ZM95.744 337.409C95.744 338.586 95.5922 341.926 91.3794 341.926C89.6336 341.926 88.0775 341.432 88.0775 339.421C88.0775 337.447 89.5957 336.878 91.2656 336.537C92.9355 336.233 94.8331 336.195 95.744 335.398V337.409ZM88.6848 331.413C88.8746 329.288 90.2029 328.453 92.2524 328.453C94.15 328.453 95.744 328.794 95.744 331.109C95.744 333.311 92.6698 333.197 89.3679 333.69C86.0281 334.146 82.6883 335.208 82.6883 339.649C82.6883 343.672 85.6486 345.531 89.3679 345.531C91.759 345.531 94.2638 344.886 95.9717 343.102C96.0097 343.748 96.1615 344.393 96.3512 345H101.816C101.323 344.203 101.133 342.419 101.133 340.635V330.426C101.133 325.72 96.4272 324.847 92.518 324.847C88.1155 324.847 83.5991 326.365 83.2955 331.413H88.6848ZM105.316 345H110.706V336.157C110.706 332.703 112.072 329.857 116.019 329.857C116.664 329.857 117.461 329.933 117.955 330.047V325.037C117.613 324.923 117.158 324.847 116.778 324.847C114.159 324.847 111.503 326.555 110.516 329.022H110.44V325.378H105.316V345ZM130.782 345H136.172V325.378H130.782V345ZM136.172 317.902H130.782V322.342H136.172V317.902ZM140.415 345H145.805V334.715C145.805 330.73 147.057 329.098 149.979 329.098C152.484 329.098 153.433 330.692 153.433 333.918V345H158.822V332.931C158.822 328.073 157.38 324.847 151.649 324.847C149.372 324.847 147.019 325.91 145.653 328.111H145.539V325.378H140.415V345ZM172.527 338.624C172.755 343.823 177.195 345.531 181.749 345.531C186.228 345.531 190.706 343.861 190.706 338.7C190.706 335.056 187.632 333.918 184.482 333.197C181.408 332.476 178.372 332.21 178.372 330.274C178.372 328.68 180.155 328.453 181.37 328.453C183.305 328.453 184.899 329.022 185.051 331.109H190.175C189.757 326.289 185.81 324.847 181.522 324.847C177.309 324.847 172.982 326.137 172.982 331.147C172.982 334.601 176.094 335.702 179.207 336.385C183.078 337.22 185.317 337.789 185.317 339.421C185.317 341.319 183.343 341.926 181.787 341.926C179.662 341.926 177.688 340.977 177.651 338.624H172.527ZM200.692 319.496H195.303V325.378H192.039V328.984H195.303V340.56C195.303 344.469 198.187 345.228 201.489 345.228C202.552 345.228 203.728 345.19 204.639 345.038V340.825C204.07 340.939 203.538 340.977 202.969 340.977C201.147 340.977 200.692 340.522 200.692 338.7V328.984H204.639V325.378H200.692V319.496ZM225.079 325.378H219.5L215.211 338.814H215.135L210.695 325.378H204.926L211.833 343.786C212.441 345.342 211.833 347.277 209.974 347.467C208.911 347.505 207.848 347.353 206.824 347.277V351.718C207.924 351.831 209.025 351.907 210.126 351.907C213.845 351.907 215.705 350.617 216.881 347.467L225.079 325.378ZM227.036 345H232.425V317.902H227.036V345ZM255.265 336.499C255.645 330.464 252.419 324.847 245.739 324.847C239.781 324.847 235.72 329.326 235.72 335.208C235.72 341.281 239.553 345.531 245.739 345.531C250.18 345.531 253.406 343.558 254.924 338.928H250.18C249.838 340.142 248.092 341.47 245.929 341.47C242.931 341.47 241.261 339.914 241.109 336.499H255.265ZM241.109 333.083C241.185 331.565 242.172 328.908 245.587 328.908C248.206 328.908 249.383 330.35 249.876 333.083H241.109Z" fill="white"/>
</svg>
